Coordinates
version=1
nRows=13
nColumns=36
inDegrees=yes

Units are S.I. units (second, meters, Newtons, ...)
If the header above contains a line with 'inDegrees', this indicates whether rotational values are in degrees (yes) or radians (no).

endheader
time	pelvis_tilt	pelvis_list	pelvis_rotation	pelvis_tx	pelvis_ty	pelvis_tz	hip_flexion_r	hip_adduction_r	hip_rotation_r	knee_angle_r	knee_angle_r_beta	ankle_angle_r	subtalar_angle_r	mtp_angle_r	hip_flexion_l	hip_adduction_l	hip_rotation_l	knee_angle_l	knee_angle_l_beta	ankle_angle_l	subtalar_angle_l	mtp_angle_l	lumbar_extension	lumbar_bending	lumbar_rotation	arm_flex_r	arm_add_r	arm_rot_r	elbow_flex_r	pro_sup_r	arm_flex_l	arm_add_l	arm_rot_l	elbow_flex_l	pro_sup_l
     14.91666670	     -5.25797333	     -2.27605806	     -1.91102632	      0.60747622	      0.79291394	      0.74637436	     -5.09034960	      5.22130168	      1.27522413	     10.84331211	      0.18925150	     19.02332825	      4.17698208	     -7.49999987	     37.23012598	     -4.43155376	      0.27168109	      7.92570540	      0.13832965	     13.86315639	      4.04511641	     -7.49999987	     -8.46125871	      5.06196006	      5.16819783	     13.82885277	    -19.85293487	      8.23709607	     23.31167797	     84.40241171	      8.25350266	     -9.22548008	     12.57162524	     13.02061526	     89.15886151
     14.93333330	     -4.88071550	     -1.79676575	     -1.81091457	      0.60535201	      0.78918043	      0.74519057	     -6.72195323	      4.65185711	      1.51751217	     10.17978165	      0.17767071	     19.70195224	      5.13461905	     -7.49999987	     38.21730781	     -4.05910130	      0.80980285	      8.04447702	      0.14040261	     14.42935180	      4.57813922	     -7.49999987	     -9.43173077	      4.39675682	      5.13710051	     15.40699254	    -19.74523307	      8.14835329	     24.53088953	     84.37051636	      8.38104735	     -9.47248805	     11.69478296	     13.08752368	     89.10034821
     14.95000000	     -4.91949187	     -1.10785315	     -1.82130513	      0.60419731	      0.78353036	      0.74367516	     -7.80788378	      3.90189168	      2.07476373	      9.65878719	      0.16857764	     20.70315516	      5.21182986	     -7.49999987	     39.78021028	     -3.52589860	      0.91057473	      9.58464308	      0.16728358	     14.75679391	      4.48142900	     -7.49999987	     -9.59443561	      3.39638377	      5.51395887	     16.50738790	    -19.60358706	      8.07930383	     25.15750996	     84.28575467	      8.51352083	     -9.77945376	     11.48692105	     13.26220788	     88.98526887
     14.96666670	     -4.60854004	     -0.39975511	     -1.74512224	      0.60290236	      0.77592468	      0.74134758	     -9.24882753	      3.10613972	      2.26074804	      9.21031072	      0.16075025	     22.08938557	      5.22125868	     -7.49999987	     41.18193161	     -2.90099133	      0.21806161	     12.54181880	      0.21889603	     15.86505922	      5.58631571	     -7.49999987	    -10.18329422	      2.45779005	      5.21562909	     17.74296266	    -19.18208377	      7.47258897	     26.06292596	     83.49183658	      8.44143232	     -9.92373109	      8.84441121	     13.12829347	     87.98524435
     14.98333330	     -4.72293383	      0.28248888	     -1.66854958	      0.60195501	      0.76740137	      0.73927477	    -10.15067630	      2.35409739	      2.49002519	      9.10635805	      0.15893593	     23.70798792	      4.57211522	     -7.49999987	     43.05682877	     -2.23733333	     -0.23270871	     16.47309149	      0.28750968	     16.41539729	      5.59758508	     -7.49999987	    -10.08688327	      1.58697603	      5.13519971	     18.36545961	    -18.93240954	      7.28692401	     26.69543533	     82.34933658	      8.39204621	    -10.10862487	      7.46382832	     12.96594079	     86.94813547
     15.00000000	     -4.69473137	      1.00065213	     -1.61847649	      0.60279161	      0.76161485	      0.73764835	    -11.14997946	      1.50532763	      2.49696350	      9.49061614	      0.16564250	     25.33759285	      3.61990825	     -7.49999987	     44.71844439	     -1.52367947	     -0.67530133	     21.37911579	      0.37313596	     16.82089755	      5.05200347	     -7.49999987	    -10.01981421	      0.52508583	      5.03433275	     18.75378329	    -18.55231119	      7.19588221	     27.26925004	     82.39294374	      8.12926403	    -10.52945995	      7.17680941	     12.59556917	     87.06271633
     15.01666670	     -4.75768023	      1.79303463	     -1.57961562	      0.60512233	      0.76042058	      0.73549924	    -12.09602252	      0.49517243	      2.44069785	     10.16767795	      0.17745946	     26.37824392	      2.56007858	     -7.49999987	     45.93533228	     -0.69079978	     -1.12420323	     26.16053907	      0.45658754	     16.48462742	      4.14793212	     -7.49999987	     -9.54083546	     -0.67884797	      5.03512339	     18.62919310	    -18.09278617	      7.20180175	     27.63305331	     82.45093593	      7.87724039	    -10.98055944	      6.90043893	     12.10209347	     87.13996283
     15.03333330	     -5.21294275	      2.32876836	     -1.48471713	      0.60692093	      0.76287495	      0.73181923	    -12.57064962	     -0.31441221	      2.60984741	     11.04210370	      0.19272107	     26.07565165	      0.74413863	     -7.49999987	     46.92499830	      0.09430169	     -1.19603960	     30.10349309	      0.52540507	     14.95440523	      2.81222955	     -7.49999987	     -8.42545967	     -1.54717945	      5.32994374	     17.83978997	    -17.71807732	      6.23278880	     28.27009775	     84.97989135	      7.83734835	    -11.00008929	      3.14823341	     10.92194998	     92.24864075
     15.05000000	     -5.31463828	      2.93962682	     -1.23005255	      0.60964584	      0.76781375	      0.72664305	    -13.31455049	     -1.30553127	      2.41657575	     11.99156319	      0.20929226	     24.65756051	     -0.79295415	     -7.49999987	     46.73614140	      1.24154275	     -0.99339439	     32.65315435	      0.56990505	     12.76435068	      1.23136772	     -7.49999987	     -7.82626384	     -2.50414859	      5.43991971	     17.30512748	    -17.38820054	      6.62369534	     28.04084952	     83.86938735	      7.90096587	    -11.20873097	      3.41749262	      9.76488501	     91.08706433
     15.06666670	     -5.32638918	      3.56299226	     -0.57641894	      0.61644099	      0.77133014	      0.72052736	    -14.07954987	     -2.29358262	      1.63235025	     13.01458401	      0.22714734	     22.28231845	     -2.18144474	     -7.49999987	     45.88120139	      2.84032756	     -0.30397225	     34.18883721	      0.59670778	     10.51082510	     -0.42755627	     -7.49999987	     -7.49345630	     -3.42168578	      5.10043326	     16.52164559	    -17.09300677	      6.77682997	     27.97377246	     83.97047230	      7.56648395	    -11.44809073	      3.40504251	      9.58492210	     91.13088406
     15.08333330	     -5.10055640	      4.09623994	      0.10659620	      0.62496433	      0.77353974	      0.71541832	    -14.68878119	     -3.16603321	      0.85417014	     14.68100997	      0.25623196	     19.21590234	     -3.91235362	     -7.49999987	     44.37610382	      4.43908128	      0.54649961	     35.02980862	      0.61138550	      8.70862854	     -2.21845266	     -7.49999987	     -7.43920663	     -4.19428658	      4.77802513	     15.68236582	    -16.82715208	      6.82921929	     27.51223141	     84.20550586	      7.38775475	    -11.45331782	      3.38355278	      8.99005749	     91.31170443
     15.10000000	     -4.68848032	      4.45758669	      0.82455703	      0.63086506	      0.77708475	      0.71198720	    -14.69200749	     -3.82456723	     -0.10266611	     17.65518961	      0.30814119	     15.45499100	     -5.88473688	     -7.49999987	     42.37172064	      5.85164204	      1.51402267	     35.26983342	      0.61557472	      7.57481778	     -3.75116842	     -7.49999987	     -7.61813514	     -4.74640228	      4.28804713	     14.77382562	    -16.50161656	      6.75897643	     26.96167112	     84.36972504	      7.05789469	    -11.39563767	      3.41731045	      8.67809480	     91.35391329
     15.11666670	     -4.11079876	      4.56159240	      1.47206800	      0.63220315	      0.78389441	      0.70906605	    -13.47951700	     -4.29278145	     -0.99745994	     22.79618548	      0.39786849	     10.16561929	     -8.18961882	     -7.49999987	     39.90785164	      6.91583100	      2.55153298	     34.88771323	      0.60890546	      7.00850306	     -5.01804661	     -7.49999987	     -8.06952518	     -4.96196118	      3.64230379	     14.08059833	    -16.16083789	      6.62528879	     26.29458738	     84.56564352	      6.80822363	    -11.25277960	      3.58247330	      8.46689713	     91.43414687
